<svg xmlns="http://www.w3.org/2000/svg" xmlns:xlink="http://www.w3.org/1999/xlink" viewBox="0 0 240 160">
  <!-- Background (optional) -->
  <rect width="240" height="160" fill="#f0f0f0" opacity="0"/>
  
  <!-- 8-bit pixel side view golden retriever -->
  
  <!-- Body -->
  <rect x="80" y="70" width="80" height="40" fill="#F9BC62"/>
  
  <!-- Legs -->
  <rect x="90" y="110" width="10" height="30" fill="#F9BC62"/>
  <rect x="140" y="110" width="10" height="30" fill="#F9BC62"/>
  <rect x="80" y="130" width="10" height="10" fill="#F9BC62"/>
  <rect x="150" y="130" width="10" height="10" fill="#F9BC62"/>
  
  <!-- Head -->
  <rect x="40" y="60" width="40" height="40" fill="#F9BC62"/>
  
  <!-- Snout -->
  <rect x="20" y="70" width="20" height="20" fill="#F9BC62"/>
  
  <!-- Ear -->
  <rect x="60" y="40" width="30" height="20" fill="#F9BC62"/>
  
  <!-- Eye -->
  <rect x="50" y="65" width="10" height="10" fill="#000000"/>
  
  <!-- Nose -->
  <rect x="15" y="75" width="5" height="5" fill="#000000"/>
  
  <!-- Mouth with tongue out -->
  <rect x="20" y="85" width="15" height="5" fill="#C47B3F"/>
  <rect x="15" y="90" width="10" height="5" fill="#FF9999"/>
  
  <!-- Collar -->
  <rect x="75" y="80" width="10" height="15" fill="#E74C3C"/>
  
  <!-- Tail Group (for animation) -->
  <g>
    <g id="tail">
      <rect x="160" y="60" width="10" height="10" fill="#F9BC62"/>
      <rect x="170" y="50" width="10" height="10" fill="#F9BC62"/>
      <rect x="180" y="40" width="10" height="10" fill="#F9BC62"/>
    </g>
    
    <!-- Animation for the tail -->
    <animateTransform
      xlink:href="#tail"
      attributeName="transform"
      type="rotate"
      values="0 160 65; 15 160 65; 0 160 65; -15 160 65; 0 160 65"
      dur="0.8s"
      repeatCount="indefinite"
    />
  </g>
  
  <!-- Highlights in fur -->
  <rect x="50" y="60" width="20" height="10" fill="#FFCF8B"/>
  <rect x="90" y="70" width="30" height="10" fill="#FFCF8B"/>
  
  <!-- Paws -->
  <rect x="90" y="140" width="10" height="5" fill="#DDA148"/>
  <rect x="140" y="140" width="10" height="5" fill="#DDA148"/>
  
  <!-- Optional: Ground shadow -->
  <ellipse cx="120" cy="150" rx="70" ry="5" fill="#CCCCCC" opacity="0.5"/>
</svg>
